<?xml version="1.0" encoding="UTF-8" standalone="no"?>
<!-- Generator: Adobe Illustrator 19.0.0, SVG Export Plug-In . SVG Version: 6.00 Build 0)  -->

<svg
   xmlns:dc="http://purl.org/dc/elements/1.1/"
   xmlns:cc="http://creativecommons.org/ns#"
   xmlns:rdf="http://www.w3.org/1999/02/22-rdf-syntax-ns#"
   xmlns:svg="http://www.w3.org/2000/svg"
   xmlns="http://www.w3.org/2000/svg"
   xmlns:sodipodi="http://sodipodi.sourceforge.net/DTD/sodipodi-0.dtd"
   xmlns:inkscape="http://www.inkscape.org/namespaces/inkscape"
   height="25"
   width="25"
   version="1.1"
   id="Layer_1"
   x="0px"
   y="0px"
   viewBox="0 0 512 512"
   style="enable-background:new 0 0 512 512;"
   xml:space="preserve"
   sodipodi:docname="click.svg"
   inkscape:version="0.92.4 (5da689c313, 2019-01-14)"><metadata
   id="metadata4698"><rdf:RDF><cc:Work
       rdf:about=""><dc:format>image/svg+xml</dc:format><dc:type
         rdf:resource="http://purl.org/dc/dcmitype/StillImage" /></cc:Work></rdf:RDF></metadata><defs
   id="defs4696" /><sodipodi:namedview
   pagecolor="#ffffff"
   bordercolor="#666666"
   borderopacity="1"
   objecttolerance="10"
   gridtolerance="10"
   guidetolerance="10"
   inkscape:pageopacity="0"
   inkscape:pageshadow="2"
   inkscape:window-width="2560"
   inkscape:window-height="1017"
   id="namedview4694"
   showgrid="false"
   inkscape:zoom="26.700352"
   inkscape:cx="9.8491116"
   inkscape:cy="10.299001"
   inkscape:window-x="-8"
   inkscape:window-y="-8"
   inkscape:window-maximized="1"
   inkscape:current-layer="Layer_1" />
<g
   id="g4661">
	<g
   id="g4659">
		<path
   d="M481.635,331.406L424.74,217.635c-7.719-15.448-22.521-26.24-39.583-28.865l-113.385-17.448h-0.01    c-23.458-3.573-47.052,8.083-58.406,28.865l-34.859-69.725C187.184,116.771,192,101.376,192,85.333    C192,38.281,153.719,0,106.667,0C59.615,0,21.333,38.281,21.333,85.333c0,44.674,34.626,81.029,78.388,84.632l99.299,198.598    c2.406,4.802,0.479,8.854-0.469,10.375c-0.938,1.521-3.698,5.063-9.073,5.063h-88.927C80.396,384,64,400.396,64,420.552    c0,5.635,1.333,11.292,3.854,16.354l7.938,15.865c1.302,2.594,3.594,4.542,6.365,5.406l150.667,47.083    c14.292,4.469,29.135,6.74,44.115,6.74c22.844,0,45.719-5.396,66.135-15.615l100.281-50.135    c29.188-14.583,47.313-43.927,47.313-76.563C490.667,356.479,487.542,343.24,481.635,331.406z M42.667,85.333    c0-35.292,28.708-64,64-64c35.292,0,64,28.708,64,64c0,7.405-1.421,14.633-3.97,21.531l-20.04-40.083    c-7.438-14.875-22.396-24.115-39.031-24.115C83.573,42.667,64,62.24,64,88.219c0,6.75,1.594,13.5,4.604,19.51l19.224,38.449    C61.768,138.078,42.667,114.025,42.667,85.333z M433.812,427.167l-100.281,50.135c-28.927,14.479-63.448,17.281-94.344,7.604    l-146.344-45.74l-5.906-11.792c-1.052-2.115-1.604-4.469-1.604-6.823c0-8.396,6.823-15.219,15.219-15.219h88.927    c11.177,0,21.354-5.677,27.229-15.177c5.865-9.5,6.396-21.146,1.396-31.135L87.677,98.177c-1.531-3.063-2.344-6.51-2.344-11.885    C85.333,74,95.333,64,107.625,64c8.5,0,16.146,4.719,19.948,12.323l76.219,152.448c3.625,7.229,15.479,7.229,19.083,0    l8.594-17.198c6.865-13.688,22.063-21.458,37.052-19.167l113.385,17.448c10.24,1.573,19.115,8.052,23.75,17.323l56.896,113.771    c4.438,8.875,6.781,18.813,6.781,28.74C469.333,394.188,455.719,416.219,433.812,427.167z"
   id="path4657" />
	</g>
</g>
<g
   id="g4663">
</g>
<g
   id="g4665">
</g>
<g
   id="g4667">
</g>
<g
   id="g4669">
</g>
<g
   id="g4671">
</g>
<g
   id="g4673">
</g>
<g
   id="g4675">
</g>
<g
   id="g4677">
</g>
<g
   id="g4679">
</g>
<g
   id="g4681">
</g>
<g
   id="g4683">
</g>
<g
   id="g4685">
</g>
<g
   id="g4687">
</g>
<g
   id="g4689">
</g>
<g
   id="g4691">
</g>
<path
   style="fill:#ffffff;fill-opacity:1;stroke-width:0.03745269"
   d="m 12.690302,23.879856 c -0.198558,-0.02709 -0.518779,-0.09151 -0.711601,-0.143145 -0.268959,-0.07203 -6.3795009,-1.969491 -7.2639932,-2.255638 -0.1674977,-0.05419 -0.176533,-0.06523 -0.3510728,-0.42915 -0.1615436,-0.33682 -0.1774915,-0.393535 -0.1622707,-0.577078 0.01944,-0.234416 0.1242932,-0.412418 0.3232922,-0.548828 l 0.131666,-0.09025 2.4559469,-0.01873 c 2.3970171,-0.01828 2.4610406,-0.02065 2.6682232,-0.09908 0.4276934,-0.161894 0.7261644,-0.441224 0.9174154,-0.858582 0.133044,-0.290336 0.162673,-0.728672 0.07065,-1.045218 -0.0347,-0.119368 -1.5224246,-3.134643 -3.3060522,-6.70061 L 4.2195468,4.6299712 4.2021065,4.3443334 C 4.1778413,3.9469183 4.2579833,3.7181727 4.5096608,3.4664953 4.7526045,3.2235515 4.9977351,3.1327182 5.3369403,3.1599463 c 0.2682529,0.021533 0.5675237,0.1643651 0.717272,0.3423307 0.051691,0.061432 0.9451779,1.8149937 1.9855258,3.8968045 1.040348,2.0818108 1.9354524,3.8317275 1.9891209,3.8887025 0.113085,0.120053 0.33349,0.19041 0.483634,0.154387 0.25713,-0.06169 0.303584,-0.114311 0.569417,-0.644963 0.343752,-0.686194 0.532584,-0.9299096 0.897619,-1.158507 0.21223,-0.1329053 0.584071,-0.2335755 0.86038,-0.2329347 0.136873,2.996e-4 1.542195,0.2001561 3.122937,0.4440859 2.718722,0.4195348 2.887284,0.4500098 3.118396,0.5637858 0.502985,0.247619 0.462774,0.181583 2.084305,3.422886 0.801972,1.603075 1.511761,3.069389 1.577307,3.258475 0.114398,0.330014 0.119212,0.367807 0.120121,0.943035 8.31e-4,0.525719 -0.0098,0.633545 -0.08684,0.878818 -0.215223,0.6854 -0.634433,1.275355 -1.185602,1.6685 -0.334113,0.238321 -5.616431,2.86496 -6.04861,3.007679 -0.967554,0.319516 -1.914192,0.414732 -2.851618,0.286825 z"
   id="path4700"
   inkscape:connector-curvature="0"
   transform="scale(20.48)" /><path
   style="fill:#ffffff;fill-opacity:1;stroke-width:0.03745269"
   d="M 3.8420755,6.9317828 C 3.4652407,6.7410078 3.2576038,6.5876405 2.9743957,6.2908875 2.4447585,5.7359184 2.1676121,5.1168232 2.1090924,4.3579548 2.029299,3.3232158 2.5705018,2.2121685 3.4447016,1.6160527 3.7489699,1.4085724 4.0013935,1.2899583 4.3595264,1.1861755 6.2466827,0.63929902 8.1679521,1.9927399 8.3012642,3.9629381 8.3249748,4.313353 8.2763054,4.7535046 8.1846036,5.0179799 L 8.1373342,5.1543089 7.6275109,4.1391785 C 7.3471082,3.5808568 7.0415231,3.0227264 6.9484326,2.8988887 6.5612943,2.3838812 5.9120534,2.0672027 5.2390586,2.0651123 4.9739073,2.0642887 4.5041279,2.183362 4.2701863,2.310689 3.4056622,2.781222 2.9541774,3.7871535 3.1636782,4.7760468 3.2035519,4.96426 3.3560227,5.3091117 3.7248183,6.0452083 c 0.2785144,0.5559006 0.5063898,1.0168447 0.5063898,1.024321 0,0.040247 -0.124827,-0.00394 -0.3891326,-0.1377465 z"
   id="path4702"
   inkscape:connector-curvature="0"
   transform="scale(20.48)" /></svg>